<svg width="24" height="24" viewBox="0 0 24 24" fill="none" xmlns="http://www.w3.org/2000/svg">
<path d="M12 24C18.6274 24 24 18.6274 24 12C24 5.37258 18.6274 0 12 0C5.37258 0 0 5.37258 0 12C0 18.6274 5.37258 24 12 24Z" fill="#34E0A1"/>
<path d="M19.5283 9.4958L21 7.8335H17.7378C16.0471 6.63886 14.0493 6 12.0043 6C9.95921 6 7.96145 6.63886 6.27077 7.8335H3L4.47168 9.4958C4.036 9.91051 3.68333 10.4103 3.43383 10.9666C3.18434 11.523 3.04292 12.1249 3.01765 12.738C2.99239 13.3511 3.08378 13.9634 3.2866 14.5398C3.48943 15.1163 3.79969 15.6455 4.19967 16.0973C4.59965 16.5492 5.08149 16.9147 5.61763 17.173C6.15377 17.4314 6.7337 17.5774 7.32426 17.6029C7.91482 17.6283 8.50441 17.5326 9.05933 17.3213C9.61425 17.11 10.1236 16.7872 10.5583 16.3713L12.0001 18L13.441 16.3724C14.2713 17.1732 15.363 17.6175 16.4963 17.6159C18.98 17.6159 20.9953 15.5254 20.9953 12.9466C20.9961 12.297 20.866 11.6544 20.6133 11.0601C20.3607 10.4658 19.9911 9.93298 19.5283 9.4958ZM7.50188 16.1065C6.89995 16.1065 6.31153 15.9212 5.81104 15.574C5.31056 15.2268 4.92047 14.7332 4.69012 14.1559C4.45977 13.5785 4.39951 12.9431 4.51694 12.3302C4.63437 11.7172 4.92422 11.1542 5.34985 10.7123C5.77548 10.2703 6.31777 9.9694 6.90814 9.84747C7.49851 9.72555 8.11043 9.78812 8.66655 10.0273C9.22266 10.2664 9.69798 10.6715 10.0324 11.1911C10.3668 11.7107 10.5453 12.3217 10.5453 12.9466C10.5453 13.3616 10.4666 13.7725 10.3136 14.1559C10.1607 14.5392 9.93651 14.8876 9.6539 15.181C9.3713 15.4744 9.03579 15.7072 8.66655 15.866C8.2973 16.0248 7.90155 16.1065 7.50188 16.1065ZM12.0001 12.8557C12.0001 10.7762 10.5432 8.99194 8.62204 8.22889C9.69232 7.76596 10.8403 7.52762 11.9997 7.52762C13.1592 7.52762 14.3072 7.76596 15.3774 8.22889C13.4565 8.99221 12.0001 10.7764 12.0001 12.8557ZM16.4963 16.1065C15.8944 16.1065 15.306 15.9212 14.8055 15.574C14.305 15.2268 13.9149 14.7332 13.6846 14.1559C13.4542 13.5785 13.3939 12.9431 13.5114 12.3302C13.6288 11.7172 13.9187 11.1542 14.3443 10.7123C14.7699 10.2703 15.3122 9.9694 15.9026 9.84747C16.4929 9.72555 17.1049 9.78812 17.661 10.0273C18.2171 10.2664 18.6924 10.6715 19.0268 11.1911C19.3612 11.7107 19.5397 12.3217 19.5397 12.9466C19.5397 13.7847 19.2191 14.5884 18.6483 15.181C18.0776 15.7736 17.3035 16.1065 16.4963 16.1065ZM16.4963 11.2903C16.1807 11.2903 15.8722 11.3874 15.6098 11.5695C15.3474 11.7515 15.1429 12.0103 15.0221 12.313C14.9014 12.6157 14.8698 12.9488 14.9314 13.2702C14.993 13.5916 15.145 13.8867 15.3681 14.1184C15.5913 14.3501 15.8756 14.5079 16.1852 14.5717C16.4947 14.6356 16.8155 14.6028 17.1071 14.4774C17.3986 14.3519 17.6478 14.1396 17.8231 13.8671C17.9984 13.5946 18.092 13.2743 18.0919 12.9466C18.0919 12.7291 18.0506 12.5137 17.9704 12.3127C17.8902 12.1117 17.7727 11.9291 17.6245 11.7753C17.4764 11.6215 17.3005 11.4995 17.1069 11.4163C16.9133 11.333 16.7058 11.2902 16.4963 11.2903ZM9.09747 12.9466C9.09753 13.2743 9.00399 13.5946 8.82869 13.8671C8.6534 14.1396 8.40422 14.3519 8.11267 14.4774C7.82111 14.6028 7.50029 14.6356 7.19075 14.5717C6.88122 14.5079 6.59689 14.3501 6.37372 14.1184C6.15054 13.8867 5.99855 13.5916 5.93697 13.2702C5.87538 12.9488 5.90696 12.6157 6.02772 12.313C6.14848 12.0103 6.35299 11.7515 6.61539 11.5695C6.87779 11.3874 7.18629 11.2903 7.50188 11.2903C7.92501 11.2903 8.33082 11.4648 8.63004 11.7754C8.92927 12.086 9.09741 12.5073 9.09747 12.9466Z" fill="black"/>
</svg>
